<?xml version="1.0" encoding="utf-8"?>
<!-- Generator: Adobe Illustrator 22.1.0, SVG Export Plug-In . SVG Version: 6.00 Build 0)  -->
<svg version="1.1" id="Layer_1" xmlns="http://www.w3.org/2000/svg" xmlns:xlink="http://www.w3.org/1999/xlink" x="0px" y="0px"
	 viewBox="0 0 87.5 46" style="enable-background:new 0 0 290.5 46.5;" xml:space="preserve">
<style type="text/css">
	.st0{fill:#FBDD11;}
</style>
<title>bananologo</title>
<g>
	<path class="st0" d="M62.8,45.7c-27.5,3.5-40.2-20.8-38-23.2c1.5-1.6,3.8-1.7,5.8-1.7c9.2-0.2,22.2,10.5,24.9,10.5
		c5.1-0.1,12.8-8.3,17.9-15c2.1-2.8,15.3-7.1,13.8,0.3C82.5,40.5,66.3,45.2,62.8,45.7z"/>
	<path class="st0" d="M24.5,0.3c27.5-3.5,40.2,20.8,38,23.2c-1.5,1.6-3.8,1.7-5.8,1.7c-9.2,0.2-22.2-10.5-24.9-10.5
		c-5.1,0.1-12.8,8.3-17.9,15c-2.1,2.8-15.3,7.1-13.8-0.3C4.8,5.4,21,0.7,24.5,0.3z"/>
</g>
</svg>
